<?xml version="1.0" encoding="utf-8"?>
<!-- Generator: Adobe Illustrator 23.0.2, SVG Export Plug-In . SVG Version: 6.00 Build 0)  -->
<svg version="1.1" id="Layer_1" xmlns="http://www.w3.org/2000/svg" xmlns:xlink="http://www.w3.org/1999/xlink" x="0px" y="0px"
	 viewBox="0 0 36 36" style="enable-background:new 0 0 36 36;" xml:space="preserve">
<style type="text/css">
	.st0{fill:#49545E;}
</style>
<g>
	<g>
		<path class="st0" d="M25.73,24.31H11c-0.58,0-1.05,0.47-1.05,1.05c0,0.58,0.47,1.05,1.05,1.05h14.73c0.58,0,1.05-0.47,1.05-1.05
			C26.78,24.78,26.31,24.31,25.73,24.31z M23.62,28.52H13.1c-0.58,0-1.05,0.47-1.05,1.05c0,0.58,0.47,1.05,1.05,1.05h10.52
			c0.58,0,1.05-0.47,1.05-1.05C24.67,28.99,24.2,28.52,23.62,28.52z M21.52,32.73h-6.31c-0.58,0-1.05,0.47-1.05,1.05
			c0,0.58,0.47,1.05,1.05,1.05h6.31c0.58,0,1.05-0.47,1.05-1.05C22.57,33.2,22.1,32.73,21.52,32.73z M18.36,1.17
			c-6.97,0-12.63,5.65-12.63,12.63c0,3.23,1.22,6.18,3.22,8.42h3.1c-2.56-1.92-4.21-4.98-4.21-8.42c0-5.81,4.71-10.52,10.52-10.52
			s10.52,4.71,10.52,10.52c0,3.44-1.65,6.5-4.21,8.42h3.1c2-2.23,3.22-5.18,3.22-8.42C30.99,6.82,25.33,1.17,18.36,1.17z
			 M23.6,12.74c0,0,0.03,1.05,1.06,1.05c1.04,0,1.09-1.05,1.09-1.05c-0.52-3.57-3.61-6.31-7.39-6.31c0,0-1.05,0-1.05,1.05
			s1.05,1.05,1.05,1.05C20.99,8.53,23.1,10.34,23.6,12.74z"/>
	</g>
</g>
</svg>
