<?xml version="1.0" encoding="utf-8"?>
<!-- Generator: Adobe Illustrator 23.0.2, SVG Export Plug-In . SVG Version: 6.00 Build 0)  -->
<svg version="1.1" id="Layer_1" xmlns="http://www.w3.org/2000/svg" xmlns:xlink="http://www.w3.org/1999/xlink" x="0px" y="0px"
	 viewBox="0 0 36 36" style="enable-background:new 0 0 36 36;" xml:space="preserve">
<style type="text/css">
	.st0{fill:#49545E;}
</style>
<path class="st0" d="M32.66,1.24H3.34c-1.16,0-2.09,0.94-2.09,2.09v20.95c0,1.16,0.94,2.09,2.09,2.09h12.57v6.28H7.53
	c-0.58,0-1.05,0.47-1.05,1.05s0.47,1.05,1.05,1.05h20.95c0.58,0,1.05-0.47,1.05-1.05s-0.47-1.05-1.05-1.05h-8.38v-6.28h12.57
	c1.16,0,2.09-0.94,2.09-2.09V3.34C34.76,2.18,33.82,1.24,32.66,1.24z M32.66,24.28H22.19h-8.38H3.34V3.34h29.33V24.28z"/>
</svg>
