<?xml version="1.0" encoding="utf-8"?>
<!-- Generator: Adobe Illustrator 23.0.2, SVG Export Plug-In . SVG Version: 6.00 Build 0)  -->
<svg version="1.1" id="Layer_1" xmlns="http://www.w3.org/2000/svg" xmlns:xlink="http://www.w3.org/1999/xlink" x="0px" y="0px"
	 viewBox="0 0 36 36" style="enable-background:new 0 0 36 36;" xml:space="preserve">
<style type="text/css">
	.st0{fill:#49545E;}
</style>
<path class="st0" d="M33.77,16.87h-1.18C32.04,9.69,26.31,3.96,19.13,3.41V2.23c0-0.62-0.5-1.13-1.13-1.13
	c-0.62,0-1.13,0.5-1.13,1.13v1.18C9.69,3.96,3.96,9.69,3.41,16.87H2.23c-0.62,0-1.13,0.5-1.13,1.13s0.5,1.13,1.13,1.13h1.18
	c0.55,7.19,6.27,12.91,13.46,13.46v1.18c0,0.62,0.5,1.13,1.13,1.13c0.62,0,1.13-0.5,1.13-1.13v-1.18
	c7.19-0.55,12.91-6.27,13.46-13.46h1.18c0.62,0,1.13-0.5,1.13-1.13S34.39,16.87,33.77,16.87z M19.13,30.33v-5.58
	c0-0.62-0.5-1.13-1.13-1.13c-0.62,0-1.13,0.5-1.13,1.13v5.58c-5.94-0.53-10.67-5.26-11.2-11.2h5.58c0.62,0,1.13-0.5,1.13-1.13
	s-0.5-1.13-1.13-1.13H5.67c0.53-5.94,5.26-10.67,11.2-11.2v5.58c0,0.62,0.5,1.13,1.13,1.13c0.62,0,1.13-0.5,1.13-1.13V5.67
	c5.95,0.54,10.67,5.26,11.21,11.21h-5.58c-0.62,0-1.13,0.5-1.13,1.13s0.5,1.13,1.13,1.13h5.58C29.8,25.07,25.07,29.8,19.13,30.33z"
	/>
</svg>
