<?xml version="1.0" encoding="UTF-8"?><svg id="Layer_2" xmlns="http://www.w3.org/2000/svg" viewBox="0 0 304.89 50.1"><defs><style>.cls-1{fill:#fff;stroke-width:0px;}</style></defs><g id="Layer_1-2"><path class="cls-1" d="M27.52,1.36H0v47.62h8.24v-19.6h19.28c8.64,0,14.23-5.54,14.23-14.11S36.3,1.36,27.52,1.36ZM27.52,21.08H8.24v-11.48h19.28c4.24,0,6.05,1.7,6.05,5.68s-1.98,5.8-6.05,5.8Z"/><path class="cls-1" d="M75.12,0c-14.12,0-25.61,10.99-25.61,24.49,0,14.36,11.22,25.61,25.54,25.61s25.6-11.15,25.6-24.86S89.45,0,75.12,0ZM75.12,41.8c-9.64,0-17.49-7.4-17.49-16.5,0-9.85,7.33-17,17.43-17s17.43,7.27,17.43,16.56-7.63,16.93-17.37,16.93Z"/><rect class="cls-1" x="112.52" y="1.36" width="8.12" height="47.62"/><polygon class="cls-1" points="169.36 35.19 142.71 1.36 135.05 1.36 135.05 48.98 143.16 48.98 143.16 15.27 169.87 48.98 177.66 48.98 177.66 1.36 169.36 1.36 169.36 35.19"/><polygon class="cls-1" points="189.09 9.6 205.54 9.6 205.54 48.98 213.59 48.98 213.59 9.6 229.85 9.6 229.85 1.36 189.09 1.36 189.09 9.6"/><polygon class="cls-1" points="285.92 23.2 302.12 1.36 291.9 1.36 280.72 16.25 269.72 1.36 259.71 1.36 275.46 23.18 255.96 48.98 266.44 48.98 280.71 30.08 294.27 48.68 294.5 48.98 304.89 48.98 285.92 23.2"/></g></svg>